    <svg width="25" height="28" viewBox="0 0 25 28" fill="none" xmlns="http://www.w3.org/2000/svg">
<path d="M22.2222 0.111084C22.9589 0.111084 23.6655 0.403742 24.1864 0.924676C24.7073 1.44561 25 2.15215 25 2.88886V19.5555C25 20.2922 24.7073 20.9988 24.1864 21.5197C23.6655 22.0406 22.9589 22.3333 22.2222 22.3333H19.4444V25.1111C19.4444 25.8478 19.1518 26.5543 18.6309 27.0753C18.1099 27.5962 17.4034 27.8889 16.6667 27.8889H2.77778C2.04107 27.8889 1.33453 27.5962 0.813592 27.0753C0.292658 26.5543 0 25.8478 0 25.1111V8.44442C0 7.70771 0.292658 7.00117 0.813592 6.48023C1.33453 5.9593 2.04107 5.66664 2.77778 5.66664H5.55556V2.88886C5.55556 2.15215 5.84821 1.44561 6.36915 0.924676C6.89008 0.403742 7.59662 0.111084 8.33333 0.111084H22.2222ZM16.6667 8.44442H2.77778V25.1111H16.6667V8.44442ZM9.72222 18.1666C10.0906 18.1666 10.4438 18.313 10.7043 18.5734C10.9648 18.8339 11.1111 19.1872 11.1111 19.5555C11.1111 19.9239 10.9648 20.2772 10.7043 20.5376C10.4438 20.7981 10.0906 20.9444 9.72222 20.9444H6.94444C6.57609 20.9444 6.22282 20.7981 5.96235 20.5376C5.70188 20.2772 5.55556 19.9239 5.55556 19.5555C5.55556 19.1872 5.70188 18.8339 5.96235 18.5734C6.22282 18.313 6.57609 18.1666 6.94444 18.1666H9.72222ZM22.2222 2.88886H8.33333V5.66664H16.6667C17.4034 5.66664 18.1099 5.9593 18.6309 6.48023C19.1518 7.00117 19.4444 7.70771 19.4444 8.44442V19.5555H22.2222V2.88886ZM12.5 12.6111C12.854 12.6115 13.1945 12.747 13.4519 12.99C13.7093 13.2331 13.8642 13.5652 13.885 13.9186C13.9057 14.272 13.7907 14.6199 13.5635 14.8914C13.3363 15.1629 13.014 15.3373 12.6625 15.3791L12.5 15.3889H6.94444C6.59044 15.3885 6.24995 15.2529 5.99254 15.0099C5.73513 14.7669 5.58023 14.4348 5.55948 14.0814C5.53874 13.728 5.65371 13.38 5.88092 13.1085C6.10813 12.8371 6.43042 12.6626 6.78194 12.6208L6.94444 12.6111H12.5Z" fill="white"/>
</svg>