<svg width="13" height="12" viewBox="0 0 13 12" fill="none" xmlns="http://www.w3.org/2000/svg">
<path d="M6.5002 0.148193C5.07545 0.148162 3.69717 0.655127 2.61203 1.57837C1.52688 2.50161 0.805673 3.78087 0.577474 5.18723C0.349276 6.59359 0.628975 8.03526 1.36652 9.25426C2.10406 10.4733 3.25132 11.39 4.60298 11.8405C4.90299 11.8933 5.01519 11.7133 5.01519 11.5555C5.01519 11.4133 5.00799 10.9405 5.00799 10.4383C3.50017 10.7155 3.11017 10.0705 2.99017 9.73328C2.85705 9.40493 2.64597 9.11394 2.37516 8.88547C2.16516 8.77327 1.86516 8.49547 2.36736 8.48827C2.55929 8.50903 2.74339 8.57578 2.90403 8.68284C3.06467 8.7899 3.19713 8.93412 3.29017 9.10327C3.37221 9.25068 3.48253 9.38045 3.61481 9.48514C3.74709 9.58984 3.89874 9.6674 4.06105 9.71339C4.22336 9.75937 4.39315 9.77287 4.56069 9.75312C4.72823 9.73337 4.89022 9.68075 5.03739 9.59828C5.06338 9.2931 5.19943 9.00777 5.42019 8.79547C4.08518 8.64547 2.69017 8.12826 2.69017 5.83324C2.68167 5.23682 2.90171 4.65976 3.30517 4.22043C3.12176 3.70215 3.14322 3.13339 3.36517 2.63041C3.36517 2.63041 3.86738 2.47321 5.01519 3.24542C5.99697 2.97539 7.03343 2.97539 8.01521 3.24542C9.16242 2.46541 9.66523 2.63041 9.66523 2.63041C9.88724 3.13338 9.9087 3.70216 9.72523 4.22043C10.1299 4.659 10.3501 5.23657 10.3402 5.83324C10.3402 8.13546 8.93742 8.64547 7.60241 8.79547C7.7456 8.9406 7.85589 9.11485 7.92577 9.30638C7.99565 9.49791 8.0235 9.70223 8.00741 9.90548C8.00741 10.7083 8.00021 11.3533 8.00021 11.5555C8.00021 11.7133 8.11241 11.9005 8.41242 11.8405C9.76159 11.3862 10.9054 10.4673 11.6397 9.24772C12.3741 8.02813 12.651 6.58728 12.4213 5.18235C12.1915 3.77742 11.4699 2.49987 10.3854 1.57775C9.30078 0.655636 7.92379 0.148967 6.5002 0.148193Z" fill="white"/>
</svg>
