<svg width="8" height="10" viewBox="0 0 8 10" fill="none" xmlns="http://www.w3.org/2000/svg">
<path d="M7.9291 4.26452C7.97668 4.53841 8.0004 4.81591 8 5.0939C8 6.33542 7.55623 7.38515 6.78398 8.09569H6.785C6.10966 8.71951 5.18133 9.08064 4.08059 9.08064C2.99835 9.08064 1.96044 8.65072 1.19518 7.88546C0.429918 7.1202 0 6.08229 0 5.00005C0 3.91781 0.429918 2.87989 1.19518 2.11464C1.96044 1.34938 2.99835 0.919459 4.08059 0.919459C5.09356 0.907595 6.07184 1.28816 6.8105 1.98143L5.6455 3.14644C5.22437 2.745 4.66233 2.52517 4.08059 2.53435C3.01607 2.53435 2.1117 3.25254 1.78934 4.21964C1.61842 4.7264 1.61842 5.27523 1.78934 5.78199H1.79087C2.11477 6.74756 3.0176 7.46574 4.08212 7.46574C4.63198 7.46574 5.10431 7.32496 5.47054 7.07605H5.46901C5.68166 6.93517 5.86357 6.75266 6.00375 6.53954C6.14393 6.32643 6.23947 6.08712 6.28462 5.83606H4.08059V4.26503L7.9291 4.26452Z" fill="white"/>
</svg>
