<svg width="13" height="12" viewBox="0 0 13 12" fill="none" xmlns="http://www.w3.org/2000/svg">
<path d="M5.3 3C5.29988 3.83438 5.54828 4.6499 6.01354 5.34253C6.47879 6.03516 7.1398 6.57352 7.91227 6.88894C8.68473 7.20437 9.53364 7.28256 10.3507 7.11355C11.1678 6.94454 11.9161 6.53599 12.5 5.94V6C12.5 9.3138 9.8138 12 6.5 12C3.1862 12 0.5 9.3138 0.5 6C0.5 2.6862 3.1862 0 6.5 0H6.56C6.16045 0.390696 5.84313 0.857403 5.62674 1.37263C5.41034 1.88785 5.29925 2.44118 5.3 3ZM1.7 6C1.69956 7.07099 2.05732 8.11136 2.71634 8.95558C3.37535 9.7998 4.29778 10.3994 5.33685 10.6589C6.37591 10.9184 7.47193 10.823 8.45051 10.3878C9.42908 9.95259 10.234 9.20261 10.7372 8.2572C9.84166 8.46818 8.90707 8.44685 8.02209 8.19523C7.13712 7.94361 6.3311 7.47005 5.68053 6.81947C5.02995 6.1689 4.55639 5.36288 4.30477 4.47791C4.05315 3.59293 4.03182 2.65834 4.2428 1.7628C3.47455 2.17208 2.83207 2.7826 2.38415 3.52899C1.93624 4.27537 1.69975 5.12953 1.7 6Z" fill="white"/>
</svg>
