<svg width="18" height="19" viewBox="0 0 18 19" fill="none" xmlns="http://www.w3.org/2000/svg">
<path d="M16.933 11.0409C16.7442 12.4809 16.1669 13.8423 15.2632 14.9791C14.3594 16.1159 13.1633 16.9853 11.803 17.4939C10.4427 18.0026 8.96958 18.1314 7.54166 17.8665C6.11374 17.6016 4.78486 16.953 3.69755 15.9902C2.61024 15.0275 1.80551 13.7869 1.36967 12.4016C0.933831 11.0162 0.883319 9.53838 1.22355 8.12651C1.56379 6.71464 2.28194 5.42202 3.30097 4.38728C4.32001 3.35254 5.6015 2.61471 7.008 2.25292C10.907 1.25292 14.943 3.25992 16.433 6.99992" stroke="#E5DAF8" stroke-width="2" stroke-linecap="round" stroke-linejoin="round"/>
<path d="M17 2V7H12" stroke="#E5DAF8" stroke-width="2" stroke-linecap="round" stroke-linejoin="round"/>
</svg>