<svg width="20" height="20" viewBox="0 0 20 20" fill="none" xmlns="http://www.w3.org/2000/svg">
<path d="M9.99988 13C10.7955 13 11.5586 12.6839 12.1212 12.1213C12.6838 11.5587 12.9999 10.7956 12.9999 10C12.9999 9.20435 12.6838 8.44129 12.1212 7.87868C11.5586 7.31607 10.7955 7 9.99988 7C9.20423 7 8.44117 7.31607 7.87856 7.87868C7.31595 8.44129 6.99988 9.20435 6.99988 10C6.99988 10.7956 7.31595 11.5587 7.87856 12.1213C8.44117 12.6839 9.20423 13 9.99988 13ZM9.99988 15C8.6738 15 7.40203 14.4732 6.46434 13.5355C5.52666 12.5979 4.99988 11.3261 4.99988 10C4.99988 8.67392 5.52666 7.40215 6.46434 6.46447C7.40203 5.52678 8.6738 5 9.99988 5C11.326 5 12.5977 5.52678 13.5354 6.46447C14.4731 7.40215 14.9999 8.67392 14.9999 10C14.9999 11.3261 14.4731 12.5979 13.5354 13.5355C12.5977 14.4732 11.326 15 9.99988 15ZM9.99988 0C10.2651 0 10.5194 0.105357 10.707 0.292893C10.8945 0.48043 10.9999 0.734784 10.9999 1V3C10.9999 3.26522 10.8945 3.51957 10.707 3.70711C10.5194 3.89464 10.2651 4 9.99988 4C9.73466 4 9.48031 3.89464 9.29277 3.70711C9.10524 3.51957 8.99988 3.26522 8.99988 3V1C8.99988 0.734784 9.10524 0.48043 9.29277 0.292893C9.48031 0.105357 9.73466 0 9.99988 0ZM9.99988 16C10.2651 16 10.5194 16.1054 10.707 16.2929C10.8945 16.4804 10.9999 16.7348 10.9999 17V19C10.9999 19.2652 10.8945 19.5196 10.707 19.7071C10.5194 19.8946 10.2651 20 9.99988 20C9.73466 20 9.48031 19.8946 9.29277 19.7071C9.10524 19.5196 8.99988 19.2652 8.99988 19V17C8.99988 16.7348 9.10524 16.4804 9.29277 16.2929C9.48031 16.1054 9.73466 16 9.99988 16ZM0.999878 9H2.99988C3.26509 9 3.51945 9.10536 3.70698 9.29289C3.89452 9.48043 3.99988 9.73478 3.99988 10C3.99988 10.2652 3.89452 10.5196 3.70698 10.7071C3.51945 10.8946 3.26509 11 2.99988 11H0.999878C0.734661 11 0.480308 10.8946 0.292771 10.7071C0.105235 10.5196 -0.00012207 10.2652 -0.00012207 10C-0.00012207 9.73478 0.105235 9.48043 0.292771 9.29289C0.480308 9.10536 0.734661 9 0.999878 9ZM16.9999 9H18.9999C19.2651 9 19.5194 9.10536 19.707 9.29289C19.8945 9.48043 19.9999 9.73478 19.9999 10C19.9999 10.2652 19.8945 10.5196 19.707 10.7071C19.5194 10.8946 19.2651 11 18.9999 11H16.9999C16.7347 11 16.4803 10.8946 16.2928 10.7071C16.1052 10.5196 15.9999 10.2652 15.9999 10C15.9999 9.73478 16.1052 9.48043 16.2928 9.29289C16.4803 9.10536 16.7347 9 16.9999 9ZM17.0709 2.929C17.2583 3.11653 17.3637 3.37084 17.3637 3.636C17.3637 3.90116 17.2583 4.15547 17.0709 4.343L15.6569 5.757C15.5646 5.85251 15.4543 5.92869 15.3323 5.9811C15.2103 6.03351 15.0791 6.0611 14.9463 6.06225C14.8135 6.0634 14.6818 6.0381 14.5589 5.98782C14.436 5.93754 14.3244 5.86329 14.2305 5.76939C14.1366 5.6755 14.0623 5.56385 14.0121 5.44095C13.9618 5.31806 13.9365 5.18638 13.9376 5.0536C13.9388 4.92082 13.9664 4.7896 14.0188 4.6676C14.0712 4.54559 14.1474 4.43525 14.2429 4.343L15.6569 2.929C15.8444 2.74153 16.0987 2.63621 16.3639 2.63621C16.629 2.63621 16.8833 2.74153 17.0709 2.929ZM5.75688 14.243C5.94435 14.4305 6.04966 14.6848 6.04966 14.95C6.04966 15.2152 5.94435 15.4695 5.75688 15.657L4.34288 17.07C4.25063 17.1655 4.14029 17.2417 4.01828 17.2941C3.89628 17.3465 3.76506 17.3741 3.63228 17.3752C3.4995 17.3764 3.36782 17.3511 3.24492 17.3008C3.12203 17.2505 3.01038 17.1763 2.91648 17.0824C2.82259 16.9885 2.74834 16.8769 2.69806 16.754C2.64778 16.6311 2.62247 16.4994 2.62363 16.3666C2.62478 16.2338 2.65237 16.1026 2.70478 15.9806C2.75719 15.8586 2.83337 15.7482 2.92888 15.656L4.34288 14.242C4.53041 14.0545 4.78471 13.9492 5.04988 13.9492C5.31504 13.9492 5.56935 14.0545 5.75688 14.242V14.243ZM4.34288 2.929L5.75688 4.343C5.93904 4.5316 6.03983 4.7842 6.03755 5.0464C6.03527 5.3086 5.9301 5.55941 5.7447 5.74482C5.55929 5.93023 5.30848 6.0354 5.04628 6.03767C4.78408 6.03995 4.53148 5.93916 4.34288 5.757L2.92988 4.343C2.75513 4.15313 2.66053 3.90306 2.66588 3.64507C2.67123 3.38708 2.77609 3.14115 2.95856 2.95868C3.14102 2.77621 3.38696 2.67135 3.64495 2.666C3.90294 2.66066 4.15301 2.75525 4.34288 2.93V2.929ZM15.6569 14.243L17.0709 15.657C17.253 15.8456 17.3538 16.0982 17.3516 16.3604C17.3493 16.6226 17.2441 16.8734 17.0587 17.0588C16.8733 17.2442 16.6225 17.3494 16.3603 17.3517C16.0981 17.354 15.8455 17.2532 15.6569 17.071L14.2429 15.657C14.1474 15.5648 14.0712 15.4544 14.0188 15.3324C13.9664 15.2104 13.9388 15.0792 13.9376 14.9464C13.9365 14.8136 13.9618 14.6819 14.0121 14.559C14.0623 14.4361 14.1366 14.3245 14.2305 14.2306C14.3244 14.1367 14.436 14.0625 14.5589 14.0122C14.6818 13.9619 14.8135 13.9366 14.9463 13.9377C15.0791 13.9389 15.2103 13.9665 15.3323 14.0189C15.4543 14.0713 15.5646 14.1475 15.6569 14.243Z" fill="white"/>
</svg>
