<svg width="13" height="10" viewBox="0 0 13 10" fill="none" xmlns="http://www.w3.org/2000/svg">
<path d="M4.2695 9.87527C8.798 9.87527 11.2753 6.12302 11.2753 2.87478C11.2753 2.76978 11.2753 2.66328 11.2708 2.55828C11.753 2.20914 12.1693 1.77689 12.5 1.28178C12.0495 1.48041 11.5721 1.61133 11.0833 1.67028C11.5982 1.3625 11.9838 0.878252 12.1685 0.307526C11.6847 0.594119 11.1553 0.795306 10.6032 0.902276C10.2321 0.507043 9.74105 0.245214 9.20606 0.157344C8.67108 0.0694737 8.12204 0.160467 7.644 0.416229C7.16597 0.671991 6.78561 1.07825 6.56184 1.57207C6.33807 2.06589 6.28338 2.61972 6.40625 3.14778C5.42731 3.09869 4.46961 2.84438 3.59528 2.40133C2.72095 1.95829 1.94951 1.33641 1.331 0.576026C1.01701 1.11834 0.92118 1.75983 1.06298 2.37023C1.20479 2.98062 1.57359 3.51417 2.0945 3.86253C1.70415 3.84926 1.32239 3.74445 0.98 3.55653V3.59028C0.980673 4.15839 1.17748 4.70884 1.53716 5.1486C1.89683 5.58835 2.39731 5.89043 2.954 6.00378C2.7427 6.06199 2.52442 6.09101 2.30525 6.09003C2.15074 6.09049 1.99654 6.07618 1.84475 6.04728C2.00209 6.53632 2.30845 6.9639 2.72094 7.27013C3.13342 7.57637 3.63135 7.74591 4.145 7.75503C3.27242 8.44038 2.19455 8.81208 1.085 8.81028C0.889491 8.8111 0.694117 8.79983 0.5 8.77653C1.62614 9.49447 2.93397 9.87569 4.2695 9.87527Z" fill="white"/>
</svg>
