<svg width="36" height="29" viewBox="0 0 36 29" fill="none" xmlns="http://www.w3.org/2000/svg">
<path d="M9.16659 23C7.08705 23 5.09269 22.2098 3.62223 20.8033C2.15178 19.3968 1.32568 17.4891 1.32568 15.5C1.32568 13.5109 2.15178 11.6032 3.62223 10.1967C5.09269 8.79018 7.08705 8 9.16659 8C9.65773 5.81196 11.0945 3.88914 13.1609 2.65452C14.1841 2.04321 15.331 1.61925 16.5362 1.40685C17.7414 1.19446 18.9813 1.1978 20.1851 1.41667C21.3889 1.63554 22.533 2.06566 23.5521 2.68247C24.5712 3.29928 25.4453 4.0907 26.1245 5.01155C26.8038 5.93239 27.2748 6.96463 27.5108 8.04933C27.7468 9.13402 27.7431 10.2499 27.4999 11.3333H29.1666C30.7137 11.3333 32.1974 11.9479 33.2914 13.0419C34.3853 14.1358 34.9999 15.6196 34.9999 17.1667C34.9999 18.7138 34.3853 20.1975 33.2914 21.2915C32.1974 22.3854 30.7137 23 29.1666 23H27.4999" stroke="#8952E0" stroke-width="2" stroke-linecap="round" stroke-linejoin="round"/>
<path d="M12.5 18L17.5 13M17.5 13L22.5 18M17.5 13V28" stroke="#8952E0" stroke-width="2" stroke-linecap="round" stroke-linejoin="round"/>
</svg>