<svg width="12" height="12" viewBox="0 0 12 12" fill="none" xmlns="http://www.w3.org/2000/svg">
<path fill-rule="evenodd" clip-rule="evenodd" d="M0.292492 0.304981C0.479831 0.117699 0.733884 0.0124892 0.998781 0.0124892C1.26368 0.0124892 1.51773 0.117699 1.70507 0.304981L5.99375 4.59367L10.2824 0.304981C10.3746 0.209567 10.4848 0.133462 10.6067 0.0811052C10.7286 0.0287489 10.8597 0.00119038 10.9923 3.77191e-05C11.125 -0.00111494 11.2565 0.0241611 11.3793 0.0743915C11.5021 0.124622 11.6136 0.1988 11.7074 0.292599C11.8012 0.386397 11.8754 0.497937 11.9256 0.62071C11.9758 0.743482 12.0011 0.87503 12 1.00768C11.9988 1.14032 11.9713 1.27141 11.9189 1.39329C11.8665 1.51517 11.7904 1.62541 11.695 1.71756L7.40633 6.00624L11.695 10.2949C11.877 10.4833 11.9777 10.7357 11.9754 10.9976C11.9731 11.2596 11.8681 11.5101 11.6828 11.6953C11.4976 11.8806 11.2471 11.9856 10.9851 11.9879C10.7232 11.9902 10.4709 11.8895 10.2824 11.7075L5.99375 7.41882L1.70507 11.7075C1.51666 11.8895 1.26431 11.9902 1.00238 11.9879C0.740443 11.9856 0.489883 11.8806 0.304661 11.6953C0.11944 11.5101 0.0143761 11.2596 0.0121 10.9976C0.00982384 10.7357 0.110517 10.4833 0.292492 10.2949L4.58118 6.00624L0.292492 1.71756C0.10521 1.53022 0 1.27617 0 1.01127C0 0.746373 0.10521 0.492321 0.292492 0.304981Z" fill="white"/>
</svg>
