<svg width="300" height="76" viewBox="0 0 300 76" fill="none" xmlns="http://www.w3.org/2000/svg">
<path fill-rule="evenodd" clip-rule="evenodd" d="M13.5987 0.687072C9.01088 1.01745 4.88694 3.44035 2.35475 7.29306C1.09538 9.20918 0.319164 11.3729 0.045999 13.7288C0.00807485 14.0558 0 62.2296 0 62.2296L0.0767111 62.7852C0.671938 67.0964 2.94839 70.7616 6.51074 73.1446C8.45699 74.4465 10.5592 75.2056 13.0957 75.5225C13.5278 75.5765 61.1206 75.6036 62.0952 75.4794C67.2486 74.8222 71.6841 71.4724 73.7281 66.6937C74.3648 65.2054 74.7383 63.6648 74.8649 62.0053C74.8925 61.6443 74.8748 14.0601 74.8202 13.6425C74.5927 11.9024 74.1582 10.4098 73.4533 8.94757C71.6757 5.25958 68.3953 2.4545 64.48 1.27443C63.6725 1.03105 62.7966 0.851502 61.8209 0.729309C61.3879 0.675097 13.8061 0.67213 13.5987 0.687072ZM31.3159 13.1277C30.8703 13.2757 30.5912 13.3147 29.9757 13.3149C29.6215 13.315 29.2682 13.336 29.0557 13.3696C28.8659 13.3995 28.5475 13.4237 28.3482 13.4232C27.983 13.4223 27.3307 13.505 26.7272 13.6288C26.1968 13.7376 25.2736 14.0626 24.7947 14.309C24.557 14.4313 24.2694 14.5795 24.1555 14.6383C23.9721 14.733 23.915 14.7453 23.6552 14.7458C23.4938 14.7461 23.1024 14.7206 22.7854 14.6891C22.2719 14.6381 22.1964 14.6224 22.0952 14.5453C21.9119 14.4059 21.6354 14.2809 21.5107 14.281C21.2841 14.2813 21.1909 14.3792 20.9615 14.8577C20.6705 15.4651 20.5102 15.6573 19.9456 16.076C19.0384 16.7488 18.6425 17.4724 18.5961 18.5426C18.5736 19.0633 18.5676 19.0905 18.4527 19.1999C18.3042 19.3413 16.8837 20.404 16.721 20.4954C16.6333 20.5447 16.509 20.6675 16.4104 20.8024C16.3201 20.926 16.1024 21.198 15.9268 21.4068C15.4119 22.019 15.3076 22.1888 15.0647 22.8115C14.9855 23.0147 14.7736 23.465 14.5939 23.8122C13.9653 25.0269 13.9535 25.0537 13.9535 25.2638C13.9535 25.3974 13.986 25.536 14.0615 25.7245C14.3241 26.3803 14.3893 26.9162 14.2892 27.5942C14.1852 28.2987 14.0891 28.5966 13.7337 29.3175C13.5536 29.6827 13.4064 29.9933 13.4066 30.0076C13.4067 30.022 13.4604 30.0702 13.5259 30.1149C13.7843 30.2908 13.9239 30.5624 13.9239 30.8891C13.9239 31.1448 13.9968 31.4195 14.1227 31.6384C14.1718 31.7238 14.6169 32.2057 15.1118 32.7093C15.8323 33.4423 16.0351 33.6694 16.1293 33.8481C16.3521 34.271 16.579 34.627 16.7092 34.7583C16.8864 34.9369 17.6821 35.5338 18.1753 35.858C18.6229 36.1524 19.337 36.569 19.8001 36.806C20.1806 37.0008 20.4053 37.0154 20.7578 36.868C21.4536 36.5772 21.5369 36.5663 22.9823 36.5768C24.3396 36.5867 24.2632 36.5985 25.3453 36.21C26.0939 35.9412 26.4854 35.8357 27.0006 35.7638C27.8971 35.6388 28.0517 35.7077 28.468 36.4177C28.6605 36.7461 28.767 36.8657 28.9514 36.9605C29.0769 37.025 29.1202 37.0286 29.4518 37.0017C29.6515 36.9855 30.0167 36.9718 30.2634 36.9711C30.6604 36.97 30.7319 36.979 30.8846 37.0494C31.0933 37.1455 31.2284 37.2687 31.3273 37.453C31.4758 37.7297 31.3994 38.397 31.0842 39.5752C30.8874 40.3107 30.9191 40.6916 31.2139 41.1367C31.271 41.2229 31.5899 41.5862 31.9226 41.944C32.2553 42.3019 32.6041 42.6956 32.6978 42.8189C33.0434 43.274 33.5256 44.5993 33.6772 45.5106C33.7261 45.8047 33.7661 46.0801 33.766 46.1226C33.766 46.165 33.8203 46.3621 33.8868 46.5607C34.0732 47.1179 34.0411 47.4087 33.7474 47.8228C33.0991 48.7372 32.7958 49.7514 32.7413 51.1871C32.7117 51.9668 32.7542 52.0971 33.3785 53.1423C33.9888 54.1641 34.282 54.7964 34.4207 55.3894C34.4572 55.5455 34.543 56.0613 34.6113 56.5358C34.7537 57.5246 34.9319 58.3714 35.0527 58.6331C35.0985 58.7322 35.2396 58.9412 35.3663 59.0974C35.7189 59.5322 36.0535 60.0686 36.3515 60.6768C36.8557 61.7055 36.9687 62.0836 36.9285 62.607C36.8741 63.3149 37.1446 63.8502 37.6826 64.0992C38.0086 64.25 38.3308 64.2362 39.2196 64.0334C40.0612 63.8414 40.6008 63.7654 41.1266 63.7649C41.544 63.7645 42.2579 63.668 42.6618 63.5575C43.0638 63.4475 43.3448 63.2849 43.7226 62.9439C44.4491 62.2882 45.2002 61.3877 46.1032 60.0901C46.8305 59.0449 46.9451 58.7616 46.9783 57.9273C46.9968 57.4601 47.0093 57.373 47.0697 57.2889C47.1574 57.1668 47.7335 56.874 47.9473 56.8429C48.1864 56.8081 48.3487 56.7103 48.4476 56.5416C48.6513 56.1939 48.7571 55.3871 48.6774 54.79C48.6556 54.627 48.5914 54.3038 48.5348 54.0719C48.3232 53.2053 48.4298 52.9005 49.0773 52.5212C49.2675 52.4098 49.34 52.3406 49.4612 52.1554C49.6856 51.8125 50.0034 51.5955 50.5322 51.424C51.252 51.1906 51.8452 50.6091 52.0939 49.8931C52.1818 49.64 52.1935 49.2484 52.1424 48.2767C52.1197 47.8446 52.1258 47.6672 52.1757 47.3105C52.2519 46.7647 52.2318 46.6755 51.955 46.3307C51.5929 45.8797 51.4644 45.542 51.4047 44.8849C51.3776 44.5864 51.3467 44.4577 51.2388 44.1947C51.1314 43.9329 51.1063 43.8288 51.1066 43.6471C51.107 43.4266 51.1133 43.4115 51.4805 42.7499C51.9582 41.8893 52.1375 41.6217 52.5904 41.0928C53.6127 39.8989 54.4991 39.0623 55.6785 38.1779C56.4089 37.6302 56.8848 37.1329 57.2525 36.533C58.3722 34.706 59.0698 33.3169 59.1646 32.7254C59.2276 32.3317 59.1534 31.8965 59.003 31.7783C58.8691 31.673 58.7252 31.6905 58.3021 31.8638C57.9998 31.9876 57.7605 32.0519 57.1531 32.1723C55.5659 32.4869 54.8069 32.6127 54.614 32.5931C54.2649 32.5576 54.0807 32.3528 53.9799 31.8879C53.9443 31.7241 53.8912 31.5393 53.8617 31.4772C53.7959 31.3385 52.8858 30.4461 52.1359 29.7851C51.4972 29.2221 51.3416 29.02 51.2071 28.5792C51.03 27.9985 50.8626 27.7112 50.4661 27.3076C50.0945 26.9294 50.0214 26.7629 49.9849 26.2105C49.9309 25.3936 49.7351 24.9291 49.2022 24.3544C48.9942 24.1302 48.9454 24.0518 48.8515 23.7924C48.7915 23.6266 48.7424 23.4767 48.7424 23.4594C48.7424 23.3576 48.6098 23.0727 48.4442 22.8186C48.1531 22.3721 47.6036 21.1595 47.6036 20.9637C47.6036 20.9363 47.6878 20.8803 47.7929 20.8376L47.982 20.7609L48.1265 20.3247C48.2554 19.9358 48.2711 19.8529 48.2712 19.5606C48.2714 19.2124 48.2652 19.1818 48.0478 18.4537L47.9079 17.9852L47.3158 17.9445C46.9052 17.9162 46.6179 17.8767 46.3786 17.8153C46.1176 17.7484 45.9452 17.7266 45.6712 17.726C45.2854 17.725 45.0769 17.7716 44.6372 17.957C44.2745 18.1098 44.0969 18.0844 42.2418 17.6146L40.6587 17.2137L40.4411 17.0102C40.1398 16.7283 39.9233 16.6483 39.5288 16.6728C39.1437 16.6967 38.6085 16.8653 38.4357 17.0171C38.2644 17.1674 38.2182 17.2987 38.1827 17.7351C38.1499 18.139 38.0679 18.3887 37.947 18.4534C37.9084 18.474 37.8211 18.4909 37.7529 18.4909C37.5444 18.4909 35.8134 17.8132 35.6126 17.653C35.5395 17.5946 35.4773 17.5 35.4418 17.3932C35.3227 17.0346 34.9697 16.866 34.0462 16.7268C33.2823 16.6115 32.7384 16.4269 32.2162 16.1055L31.9311 15.9301L32.0134 15.8388C32.0586 15.7886 32.1938 15.6401 32.3138 15.5089C32.6787 15.1098 32.718 14.9009 32.5047 14.4938C32.341 14.1812 32.3484 14.0162 32.5368 13.7743C32.7505 13.5 32.6927 13.3925 32.3129 13.358C32.1493 13.3432 32.1011 13.3241 32.0568 13.2566C31.9812 13.1411 31.8018 13.0386 31.6783 13.0403C31.6213 13.0411 31.4583 13.0804 31.3159 13.1277ZM57.5592 47.886C57.3968 47.985 57.2596 48.1616 57.0276 48.5705C56.9094 48.7787 56.7439 49.023 56.6597 49.1134C56.5756 49.2038 56.5063 49.3036 56.5059 49.3352C56.5034 49.5258 56.205 49.9304 55.9718 50.0594C55.9149 50.0909 55.5732 50.241 55.2126 50.393L54.557 50.6695L54.3952 50.9915C54.3062 51.1686 54.2092 51.4201 54.1795 51.5504C54.1098 51.857 54.1109 52.3207 54.1821 52.6797C54.253 53.0368 54.222 53.218 54.0097 53.6847C53.7326 54.2941 53.657 54.6555 53.7134 55.1017C53.7583 55.4568 53.8212 55.6629 54.0506 56.2058C54.2 56.5596 54.2832 56.7088 54.4017 56.8352C54.5786 57.024 54.9268 57.2432 55.0497 57.2432C55.0952 57.2432 55.2539 57.1898 55.4024 57.1245C55.5509 57.0592 55.7702 56.9881 55.8897 56.9664C56.1525 56.9188 56.2607 56.8657 56.4199 56.7066C56.6469 56.4796 56.7841 56.1169 57.0394 55.0692C57.1249 54.7181 57.3128 54.0504 57.4569 53.5854C57.7744 52.5609 57.9294 51.9667 58.0104 51.4632C58.0606 51.1505 58.1012 51.0227 58.2404 50.7385L58.4094 50.3934L58.3958 49.5997C58.3837 48.8999 58.3732 48.7789 58.3068 48.5766C58.1797 48.1895 57.8885 47.8222 57.7091 47.8227C57.6836 47.8228 57.6161 47.8513 57.5592 47.886Z" fill="white"/>
<path fill-rule="evenodd" clip-rule="evenodd" d="M113.509 6.81947C112.597 7.02212 111.772 7.56012 111.191 8.33054C110.861 8.76935 110.746 8.98438 110.094 10.3917C109.056 12.6294 93.2942 46.7109 93.1729 47.4062C92.9477 48.6976 93.3527 49.8627 94.3673 50.8426C95.6798 52.1102 97.6732 52.4565 99.2241 51.6864C100.116 51.2437 100.768 50.5181 101.26 49.4232C101.95 47.8847 114.392 20.9137 114.392 20.9137L114.48 21.0873C114.625 21.3727 134.188 63.6234 134.328 63.9119C135.203 65.7147 136.6 66.676 138.344 66.676C140.232 66.676 141.858 65.444 142.326 63.6607C142.521 62.9144 142.501 61.9392 142.274 61.1552C142.153 60.7392 118.436 9.61967 118.33 9.39774C117.688 8.05865 116.723 7.21624 115.432 6.86814C115.012 6.75471 113.924 6.72719 113.509 6.81947ZM170.335 6.79458C168.732 6.88589 167.142 7.13712 165.48 7.56153C160.801 8.75685 157.097 11.1321 154.406 14.6635C152.613 17.0173 151.546 19.4798 151.059 22.3908C150.767 24.1328 150.684 26.6307 150.89 27.4505C151.226 28.7826 152.305 29.9046 153.663 30.333C155.316 30.8544 157.272 30.2155 158.301 28.8183C158.902 28.0022 159.06 27.4114 159.124 25.7399C159.166 24.6445 159.246 24.0236 159.454 23.1574C159.873 21.4139 160.607 20.0289 161.725 18.8696C162.292 18.2821 162.635 17.9973 163.322 17.5463C164.581 16.7182 165.648 16.1969 166.994 15.752C168.525 15.2455 169.965 15.0313 171.513 15.0797C173.468 15.1409 175.377 15.6045 177.39 16.507C180.057 17.7032 181.875 19.596 182.729 22.0679C183.525 24.3703 183.666 26.9653 183.129 29.4437C182.75 31.1894 182.257 32.2617 181.354 33.2993C180.682 34.0724 179.521 34.8803 177.929 35.6838C176.1 36.6064 174.855 37.0675 171.614 38.0216C165.731 39.7534 162.586 41.0656 159.791 42.9543C158.563 43.7844 157.666 44.5337 156.598 45.6227C154.523 47.7394 152.041 53.1382 152.041 53.1382C151.399 55.0454 151.019 57.1217 150.856 59.6145C150.676 62.3643 150.704 63.1281 151.016 63.9837C151.509 65.334 152.607 66.2718 154.081 66.6014L154.505 66.6961H172.3L172.628 66.6085C173.439 66.3919 174.068 66.019 174.644 65.4139C175.672 64.3334 176.027 62.8588 175.608 61.4122C175.204 60.0193 174.09 58.9446 172.65 58.5582C172.184 58.4333 159.362 58.404 159.362 58.404L159.389 58.2123C159.717 55.8717 160.611 53.7586 161.979 52.0874C163.131 50.6812 164.706 49.5161 166.673 48.6144C168.601 47.7313 170.725 46.9771 174.277 45.9154C177.722 44.8857 179.7 44.1506 181.718 43.1508C182.814 42.6074 183.495 42.2187 184.365 41.6383C188.112 39.1384 190.409 35.6699 191.321 31.1378C192.006 27.737 191.881 23.5057 191.006 20.4113C189.681 15.7274 186.735 12.1601 182.028 9.53901C179.287 8.01261 176.282 7.08462 173.281 6.83803C172.547 6.77767 171.026 6.75523 170.335 6.79458ZM220.963 6.77876C215.798 7.03769 211.438 8.44178 208.152 10.9052C206.777 11.9358 205.502 13.2281 204.556 14.5502C203.065 16.6331 202.192 18.9445 201.876 21.6443C201.785 22.4165 201.754 24.0534 201.813 24.9339C201.937 26.7783 202.21 28.1742 202.708 29.5035C204.149 33.352 207.337 36.348 212.181 38.4057C214.341 39.3234 216.264 39.9296 220.963 41.1741C226.647 42.6796 229.079 43.5103 231.031 44.612C231.764 45.0264 232.219 45.3547 232.708 45.8239C233.497 46.5814 233.979 47.4252 234.224 48.4777C234.327 48.9175 234.368 50.0589 234.303 50.6527C234.046 53.0146 232.952 54.7776 230.91 56.1236C229.333 57.1631 227.077 57.8864 224.41 58.2075C223.785 58.2826 223.447 58.2974 222.295 58.3C221.424 58.302 220.731 58.2836 220.398 58.2497C216.724 57.8752 213.695 56.8634 211.341 55.2243C210.697 54.776 210.179 54.338 209.463 53.6377C208.706 52.8973 208.448 52.6973 208.017 52.5186C206.861 52.0387 205.132 52.2653 203.888 53.0598C203.601 53.2434 203.134 53.6927 202.923 53.9874C202.145 55.0779 201.966 56.6948 202.484 57.9602C202.741 58.5883 203.116 59.0943 203.86 59.8172C206.131 62.0249 208.564 63.5666 211.644 64.7498C215.227 66.1263 218.776 66.734 222.818 66.6634C226.855 66.5929 230.075 65.8574 233.351 64.2576C236.079 62.9253 238.005 61.3976 239.561 59.3321C241.21 57.1414 242.187 54.713 242.579 51.8268C242.701 50.9267 242.711 48.8632 242.598 47.9531C242.373 46.1421 242.004 44.8399 241.321 43.454C240.3 41.3789 238.72 39.6476 236.456 38.1211C234.646 36.9008 232.742 36.0271 229.64 34.9934C228.068 34.4693 226.805 34.1081 224.366 33.4854C221.808 32.8322 220.854 32.5707 219.498 32.1515C215.27 30.8437 212.847 29.6181 211.55 28.1313C210.323 26.7245 209.895 24.9973 210.193 22.653C210.35 21.4124 210.734 20.354 211.388 19.3574C211.8 18.73 212.631 17.9066 213.312 17.4531C215.028 16.3093 217.694 15.4493 220.398 15.1671C220.731 15.1324 221.539 15.0884 222.194 15.0695C223.267 15.0384 223.422 15.0251 223.767 14.9344C224.236 14.8114 224.522 14.687 224.906 14.4389C225.686 13.9346 226.395 12.9283 226.65 11.96C226.744 11.6047 226.778 10.7907 226.714 10.3985C226.531 9.26289 225.806 8.09795 224.901 7.48385C224.447 7.17565 223.952 6.97345 223.363 6.85486C223.064 6.79482 221.581 6.74777 220.963 6.77876ZM295.168 6.78195C294.222 6.90009 293.416 7.3101 292.744 8.01653C292.251 8.53354 292.041 8.90675 291.573 10.0984C290.467 12.9136 274.789 51.3757 274.789 51.3757C274.789 51.3757 263.988 24.7291 263.889 24.5294C263.197 23.1429 262.048 22.3423 260.587 22.229C259.26 22.1261 257.745 22.7636 256.941 23.7631C256.296 24.5642 256.016 25.4399 256.061 26.5066C256.101 27.4481 270.911 63.959 271.069 64.2751C271.312 64.7627 271.569 65.1255 271.926 65.4869C273.565 67.1447 276.159 67.1069 277.796 65.4014C278.148 65.0349 278.501 64.5265 278.683 64.1238C278.819 63.8228 299.727 12.1307 299.838 11.7277C299.91 11.4671 299.984 11.3208 299.986 10.7486C300.037 10.7486 299.931 10.0434 299.93 10.0434L299.784 9.62927C299.592 9.08651 299.318 8.63729 298.921 8.21429C298.182 7.42768 297.256 6.9421 296.22 6.79801C295.924 6.75685 295.43 6.7493 295.168 6.78195Z" fill="white"/>
<path d="M238.03 21.0955C240.352 21.0955 242.235 19.2128 242.235 16.8903C242.235 14.5678 240.352 12.6851 238.03 12.6851C235.707 12.6851 233.824 14.5678 233.824 16.8903C233.824 19.2128 235.707 21.0955 238.03 21.0955Z" fill="white"/>
<path d="M187.703 66.7314C190.025 66.7314 191.908 64.8487 191.908 62.5262C191.908 60.2037 190.025 58.321 187.703 58.321C185.38 58.321 183.497 60.2037 183.497 62.5262C183.497 64.8487 185.38 66.7314 187.703 66.7314Z" fill="white"/>
<path d="M253.997 15.1413C256.32 15.1413 258.203 13.2585 258.203 10.9361C258.203 8.61357 256.32 6.73083 253.997 6.73083C251.675 6.73083 249.792 8.61357 249.792 10.9361C249.792 13.2585 251.675 15.1413 253.997 15.1413Z" fill="white"/>
<path d="M90.632 66.6075C92.9545 66.6075 94.8372 64.7247 94.8372 62.4022C94.8372 60.0798 92.9545 58.197 90.632 58.197C88.3095 58.197 86.4268 60.0798 86.4268 62.4022C86.4268 64.7247 88.3095 66.6075 90.632 66.6075Z" fill="white"/>
</svg>
