<svg width="354" height="362" viewBox="0 0 354 362" fill="none" xmlns="http://www.w3.org/2000/svg">
<rect width="136.883" height="136.883" transform="matrix(0.993319 0.115404 0.396717 0.917941 40.9082 165.113)" stroke="url(#paint0_linear_289_86)" stroke-width="10" stroke-linejoin="bevel"/>
<rect width="94.7448" height="94.7448" transform="matrix(0.993319 0.115404 -0.596602 0.802537 177.064 180.277)" fill="url(#paint1_linear_289_86)"/>
<rect width="94.7448" height="94.7448" transform="matrix(0.396717 0.917941 -0.596602 0.802537 139.477 93.307)" fill="url(#paint2_linear_289_86)"/>
<g style="mix-blend-mode:darken">
<rect width="94.7448" height="94.7448" transform="matrix(0.993319 0.115404 0.396717 0.917941 139.477 93.307)" fill="url(#paint3_linear_289_86)"/>
</g>
<g style="mix-blend-mode:screen" opacity="0.4">
<rect width="94.7448" height="94.7448" transform="matrix(0.993319 0.115404 0.396717 0.917941 118.845 121.575)" fill="url(#paint4_linear_289_86)"/>
</g>
<g style="mix-blend-mode:screen" opacity="0.4">
<rect width="94.7448" height="94.7448" transform="matrix(0.993319 0.115404 0.396717 0.917941 98.5303 148.902)" fill="url(#paint5_linear_289_86)"/>
</g>
<g style="mix-blend-mode:screen" opacity="0.4">
<rect width="94.7448" height="94.7448" transform="matrix(0.993319 0.115404 0.396717 0.917941 139 94)" fill="url(#paint6_linear_289_86)"/>
</g>
<rect width="136.832" height="136.506" transform="matrix(0.993319 0.115404 0.396717 0.917941 122.835 54.9066)" stroke="url(#paint7_linear_289_86)" stroke-width="10" stroke-linejoin="bevel"/>
<rect width="136.506" height="137.488" transform="matrix(0.993319 0.115404 -0.596602 0.802537 177.513 180.601)" stroke="url(#paint8_linear_289_86)" stroke-width="10" stroke-linejoin="bevel"/>
<path d="M120.558 57.9696C121.546 56.6399 122.88 56.7949 123.538 58.3158L175.012 177.42C175.67 178.941 175.401 181.252 174.413 182.582L96.6204 287.226C95.6319 288.556 94.2977 288.401 93.6404 286.88L42.1657 167.776C41.5084 166.255 41.7768 163.944 42.7653 162.614L120.558 57.9696Z" stroke="url(#paint9_linear_289_86)" stroke-width="10" stroke-linejoin="round"/>
<defs>
<linearGradient id="paint0_linear_289_86" x1="68.4416" y1="0" x2="68.4416" y2="136.883" gradientUnits="userSpaceOnUse">
<stop stop-color="#8952E0"/>
<stop offset="1" stop-color="#7C62A4"/>
</linearGradient>
<linearGradient id="paint1_linear_289_86" x1="112.543" y1="49.6981" x2="12.3907" y2="121.095" gradientUnits="userSpaceOnUse">
<stop stop-color="#7A25FF"/>
<stop offset="1" stop-color="#7032D1"/>
</linearGradient>
<linearGradient id="paint2_linear_289_86" x1="113.851" y1="-26.7795" x2="-46.1697" y2="-17.2039" gradientUnits="userSpaceOnUse">
<stop stop-color="#7327EB"/>
<stop offset="1" stop-color="#6A2BCE"/>
</linearGradient>
<linearGradient id="paint3_linear_289_86" x1="75.3773" y1="75.3773" x2="68.8252" y2="-36.7748" gradientUnits="userSpaceOnUse">
<stop stop-color="#B3ABBF"/>
<stop offset="1" stop-color="#834CDA"/>
</linearGradient>
<linearGradient id="paint4_linear_289_86" x1="75.3773" y1="75.3773" x2="68.8252" y2="-36.7748" gradientUnits="userSpaceOnUse">
<stop stop-color="#7F2FFF"/>
<stop offset="1" stop-color="#682CC8"/>
</linearGradient>
<linearGradient id="paint5_linear_289_86" x1="75.3773" y1="75.3773" x2="68.8252" y2="-36.7748" gradientUnits="userSpaceOnUse">
<stop stop-color="#7F2FFF"/>
<stop offset="1" stop-color="#682CC8"/>
</linearGradient>
<linearGradient id="paint6_linear_289_86" x1="75.3773" y1="75.3773" x2="68.8252" y2="-36.7748" gradientUnits="userSpaceOnUse">
<stop stop-color="#7F2FFF"/>
<stop offset="1" stop-color="#682CC8"/>
</linearGradient>
<linearGradient id="paint7_linear_289_86" x1="68.4162" y1="0" x2="68.4162" y2="136.506" gradientUnits="userSpaceOnUse">
<stop stop-color="#8952E0"/>
<stop offset="1" stop-color="#7C62A4"/>
</linearGradient>
<linearGradient id="paint8_linear_289_86" x1="68.253" y1="0" x2="68.253" y2="137.488" gradientUnits="userSpaceOnUse">
<stop stop-color="#8952E0"/>
<stop offset="1" stop-color="#7C62A4"/>
</linearGradient>
<linearGradient id="paint9_linear_289_86" x1="149.275" y1="117.868" x2="40.8485" y2="164.728" gradientUnits="userSpaceOnUse">
<stop stop-color="#8952E0"/>
<stop offset="1" stop-color="#7C62A4"/>
</linearGradient>
</defs>
</svg>
