<svg width="300" height="64" viewBox="0 0 300 64" fill="none" xmlns="http://www.w3.org/2000/svg">
<path d="M67.4958 0.875549C59.7838 0.875549 53.755 6.68352 48.297 14.0622C40.7975 4.51282 34.527 0.875549 27.0233 0.875549C11.7243 0.875549 0 20.791 0 41.8647C0 55.0513 6.37877 63.3716 17.0656 63.3716C24.7568 63.3716 30.2898 59.7469 40.1267 42.5521C40.1267 42.5521 44.2264 35.3151 47.0429 30.3279C48.0345 31.9236 49.0719 33.6402 50.1677 35.4859L54.7799 43.2437C63.7627 58.2761 68.7707 63.3716 77.8368 63.3716C88.2528 63.3716 94.0441 54.9388 94.0441 41.4772C94.0441 19.4077 82.0574 0.875549 67.4958 0.875549ZM32.623 37.8982C24.6526 50.3975 21.8945 53.2014 17.4572 53.2014C12.8867 53.2014 10.1702 49.1892 10.1702 42.0355C10.1702 26.7364 17.7989 11.0916 26.8942 11.0916C31.8188 11.0916 35.9353 13.9331 42.239 22.9575C36.2519 32.1403 32.623 37.8982 32.623 37.8982ZM62.7211 36.3275L57.2048 27.1239C55.8189 24.8606 54.3854 22.6269 52.905 20.4243C57.8756 12.754 61.9711 8.92921 66.85 8.92921C76.9744 8.92921 85.078 23.8449 85.078 42.1605C85.078 49.1434 82.7907 53.1973 78.0535 53.1973C73.5121 53.1973 71.3455 50.2016 62.7211 36.3275Z" fill="white"/>
<path d="M112.493 5.56268H123.72L142.81 40.098L161.902 5.56268H172.886V62.3091H163.727V18.8181L146.985 48.935H138.391L121.652 18.8181V62.3091H112.493V5.56268ZM201.584 26.7207C195.016 26.7207 191.06 31.6642 190.113 37.7857H212.405C211.946 31.4798 208.309 26.7207 201.584 26.7207ZM181.032 41.2729C181.032 28.3925 189.357 19.0181 201.744 19.0181C213.927 19.0181 221.202 28.2738 221.202 41.9604V44.4759H190.113C191.216 51.1348 195.635 55.622 202.759 55.622C208.443 55.622 211.996 53.8878 215.365 50.7161L220.23 56.6751C215.646 60.8905 209.815 63.3216 202.434 63.3216C189.026 63.3216 181.032 53.544 181.032 41.2729ZM232.307 27.5332H223.877V20.0336H232.307V7.63129H241.144V20.0336H253.953V27.5332H241.144V46.5414C241.144 53.0316 243.219 55.3377 248.319 55.3377C250.647 55.3377 251.981 55.1377 253.953 54.8096V62.2279C251.497 62.9216 249.153 63.2403 246.616 63.2403C237.076 63.2403 232.307 58.0281 232.307 47.5944V27.5332ZM291.163 34.8265C289.388 30.3455 285.429 27.0457 279.611 27.0457C272.049 27.0457 267.208 32.411 267.208 41.1511C267.208 49.6724 271.664 55.2971 279.248 55.2971C285.21 55.2971 289.466 51.8285 291.163 47.5132V34.8265ZM300 62.3091H291.326V56.3907C288.901 59.8749 284.488 63.3216 277.342 63.3216C265.849 63.3216 258.168 53.7003 258.168 41.1511C258.168 28.4831 266.033 19.0181 277.829 19.0181C283.66 19.0181 288.235 21.3492 291.326 25.4646V20.0336H300V62.3091Z" fill="white"/>
</svg>
