<svg width="20" height="17" viewBox="0 0 20 17" fill="none" xmlns="http://www.w3.org/2000/svg">
<path d="M6.28238 16.8785C13.8299 16.8785 17.9586 10.6247 17.9586 5.21099C17.9586 5.03599 17.9586 4.85849 17.9511 4.68349C18.755 4.1016 19.4487 3.38118 19.9999 2.55599C19.249 2.88705 18.4533 3.10525 17.6386 3.20349C18.4968 2.69054 19.1395 1.88345 19.4474 0.932241C18.6411 1.4099 17.7586 1.74521 16.8386 1.92349C16.2201 1.26477 15.4016 0.828388 14.51 0.681938C13.6183 0.535488 12.7033 0.687143 11.9066 1.11341C11.1098 1.53968 10.4759 2.21678 10.1029 3.03982C9.72999 3.86286 9.63885 4.78591 9.84363 5.66599C8.21206 5.58418 6.6159 5.16033 5.15868 4.42192C3.70146 3.68351 2.41573 2.64705 1.38488 1.37974C0.861553 2.28359 0.701845 3.35274 0.938186 4.37007C1.17453 5.3874 1.7892 6.27665 2.65738 6.85724C2.0068 6.83514 1.37053 6.66044 0.799878 6.34724V6.40349C0.801 7.35034 1.12901 8.26777 1.72847 9.00069C2.32793 9.73361 3.16206 10.2371 4.08988 10.426C3.73771 10.523 3.37391 10.5714 3.00863 10.5697C2.75111 10.5705 2.4941 10.5467 2.24113 10.4985C2.50336 11.3136 3.01397 12.0262 3.70144 12.5366C4.3889 13.047 5.2188 13.3296 6.07488 13.3447C4.62057 14.487 2.82413 15.1065 0.974878 15.1035C0.649029 15.1049 0.323407 15.0861 -0.00012207 15.0472C1.87677 16.2438 4.0565 16.8792 6.28238 16.8785Z" fill="white"/>
</svg>
